<?xml version="1.0" standalone="no"?><!DOCTYPE svg PUBLIC "-//W3C//DTD SVG 1.1//EN" "http://www.w3.org/Graphics/SVG/1.1/DTD/svg11.dtd"><svg t="1706216330887" class="icon" viewBox="0 0 2166 1024" version="1.1" xmlns="http://www.w3.org/2000/svg" p-id="1281" xmlns:xlink="http://www.w3.org/1999/xlink" width="423.046875" height="200"><path d="M2048.17457469 512.00198375c-5.20548844-266.18614688-222.18548531-480-489.14134594-480-2.97569813 0-6.03074906 0-9.01438312 0.06348187h0.44437125c-24.56736656 0-50.78525344 1.71400219-76.17788063 4.25326501-213.30798469 31.2964125-355.51066312 184.54488375-434.22979031 302.18019468C959.62241656 220.86361344 816.59051094 67.61514312 605.00247969 36.31674688c-25.39262719-2.53926281-50.78525344-4.253265-76.17788063-4.253265C526.53926281 32 523.80955531 32 521.14332969 32 254.18350156 32 37.20548844 245.81186938 31.99801625 511.49214781v0.50785219c5.20548844 266.18614688 222.18548531 480 489.14134594 480 2.7297075 0 5.39593312 0 8.13357562-0.06348187h-0.38088937a626.1266325 626.1266325 0 0 0 77.89386656-5.07852469c213.30401719-30.47115187 355.50867937-183.658125 435.047115-301.35691875 80.43312938 117.63927938 222.63779156 270.88378219 435.04711594 302.18217843 26.21788687 2.53926281 50.78525344 4.253265 77.00512406 4.253265h5.1420075c266.94792563 0 483.9358575-213.81186937 489.141345-479.48421187v-0.50785219z m-1467.73946157 304.7115225c-16.94957813 3.37245844-36.37692188 3.37245844-53.3265 3.37245844-2.03140969 0.06348187-4.50719156 0.06348187-6.91949062 0.06348187A319.04645437 319.04645437 0 0 1 201.24780969 510.72838531v-0.44437125c5.58637781-172.29492469 146.64638812-309.8694 319.7665725-309.8694 2.4123 0 4.88808094 0 7.30038094 0.06348188h-0.38088938c16.94957813 0 35.55166125 1.71400219 53.3265 3.3724575 200.61365531 29.64589219 323.32154063 226.00033031 364.83848531 306.43346062-42.34418906 80.43312938-165.05207437 279.31889531-365.66572969 306.43544344z m551.86113375-304.7115225c41.46139875-78.71912719 164.23276594-276.78756844 364.84047-306.43544344 16.94957813-3.37245844 35.55166125-3.37245844 52.50123938-3.37245844 2.79318937-0.06348187 6.09423-0.12696281 9.3952725-0.12696375a318.20135531 318.20135531 0 0 1 318.11605219 309.47264063v0.44437125c-5.58637781 172.29492469-146.64638812 309.8694-319.83005438 309.86939906-2.4123 0-4.88808094 0-7.30038094-0.06348094h0.38089032c-16.94957813 0-35.55166125-1.71400219-52.50124032-3.37245843-199.78244344-29.63002125-323.32154063-227.6984625-365.66572968-306.41560594zM388.27045812 561.95999375h299.64093188v-98.20796906H389.09571875z m1196.03240157 0h100.74921468v-98.20796906h-101.57050687v-100.74921469h-95.67664125v101.57050781h-101.57050688v97.32121032h101.57050688v99.86047312h97.32121031z m479.10530718-468.12696375c0 25.39262719-18.60009937 43.16944969-44.88345187 43.16944969-0.50785219 0-1.07918625 0.06348187-1.71400219 0.06348187a43.16944969 43.16944969 0 0 1-43.16944969-42.34418906v-0.06348187c0-23.678625 20.31410156-43.99471031 44.88345188-43.99471032 26.21788687 0 44.88345187 18.60009937 44.88345187 43.16944969z m-77.005125 0c0 18.60009937 13.52157375 33.83765906 33.83765907 33.83765906 18.60009937 0 32.185155-15.23557594 32.185155-33.83765906s-13.52157375-33.83765906-32.185155-33.83765906c-20.31410156-1.71400219-33.83765906 13.52157375-33.83765907 33.83765906z m25.39262719 22.02016875h-8.44304906V71.86840812l16.94957906-0.82526062c7.61778844 0 11.87105344 0.82526062 15.23557594 2.53926281a9.79203187 9.79203187 0 0 1 5.07852562 9.32385563c0 5.07852562-3.37245844 8.44304812-9.32385562 9.32385468 4.253265 1.71400219 5.90378531 5.07852562 7.61778844 10.98231094l2.53926281 10.98231094h-10.15705125c-1.71400219-1.71400219-1.71400219-5.90378531-3.37245844-10.98231094-1.71400219-4.253265-3.37245844-5.90378531-9.32385469-5.90378531h-4.253265z m1.65052031-25.39262719h5.07852563c5.90378531 0 8.44304812-0.82526062 8.44304812-5.90378531 0-4.253265-2.53926281-5.90378531-8.44304812-5.90378531h-5.9018025v11.8710525z" fill="#00979D" p-id="1282"></path></svg>