<?xml version="1.0" standalone="no"?><!DOCTYPE svg PUBLIC "-//W3C//DTD SVG 1.1//EN" "http://www.w3.org/Graphics/SVG/1.1/DTD/svg11.dtd"><svg t="1706216151366" class="icon" viewBox="0 0 1024 1024" version="1.1" xmlns="http://www.w3.org/2000/svg" p-id="1251" xmlns:xlink="http://www.w3.org/1999/xlink" width="200" height="200"><path d="M935.59363508 258.72617623L86.97719467 747.25385102a79.78498275 79.78498275 0 0 1-9.00998637-36.22635899L77.03514075 299.98570003c0-27.96202667 14.91308089-54.05991822 39.14683733-68.04093155L471.61040592 25.58501168c24.23375645-13.98101333 54.30846957-14.22956468 78.48008818-0.24855136l356.48477108 204.93058656c12.36542957 6.83516208 22.05893215 16.777216 28.95623207 28.45912935z" fill="#4C8EC0" p-id="1252"></path><path d="M935.15867022 751.04425908a76.42953955 76.42953955 0 0 1-27.3406483 26.3464429l-355.73911703 206.29761897c-24.23375645 14.04315117-54.05991822 14.29170252-78.48008818 0.24855135l-356.23621973-204.86844872a78.16939899 78.16939899 0 0 1-30.82036717-32.49808876l423.34508374-242.15115094 425.20921883 246.68721304z" fill="#004678" p-id="1253"></path><path d="M511.06793245 214.85686329a290.55652598 290.55652598 0 1 0 0 580.98877629 290.55652598 290.55652598 0 0 0 0-580.98877629z m0 436.39402951a145.77536569 145.77536569 0 0 1-145.89964137-145.89964137 145.77536569 145.77536569 0 0 1 145.89964137-145.83750352 145.77536569 145.77536569 0 0 1 145.83750352 145.83750352 145.77536569 145.77536569 0 0 1-145.83750352 145.89964137z" fill="#FFFFFF" p-id="1254"></path><path d="M946.96485925 709.34977043c0 14.91308089-4.28751075 29.39119692-11.80618903 41.69448865L508.6445568 505.35125143l427.3219053-245.94155898c6.64874857 11.61977552 10.19060528 24.6687213 10.19060528 38.40118328L946.96485925 709.34977043z" fill="#005A92" p-id="1255"></path><path d="M801.56232059 487.57983005v33.18160497h-33.18160497v33.24374281h-33.18160499v-33.24374281h-33.24374281v-33.18160497h33.24374281v-33.18160498h33.18160499v33.18160498h33.18160497zM923.72530821 488.76044895v33.18160497h-33.18160498v33.24374283h-33.24374281v-33.24374283h-33.18160499v-33.18160497h33.18160499v-33.18160498h33.24374281v33.18160498h33.18160498z" fill="#FFFFFF" p-id="1256"></path></svg>