<?xml version="1.0" standalone="no"?><!DOCTYPE svg PUBLIC "-//W3C//DTD SVG 1.1//EN" "http://www.w3.org/Graphics/SVG/1.1/DTD/svg11.dtd"><svg t="1706274355752" class="icon" viewBox="0 0 1024 1024" version="1.1" xmlns="http://www.w3.org/2000/svg" p-id="1281" xmlns:xlink="http://www.w3.org/1999/xlink" width="200" height="200"><path d="M511.54488889 16.27022222C230.17244445 16.15644445 2.27555555 243.93955555 2.27555555 525.08444445 2.27555555 747.40622222 144.83911111 936.39111111 343.38133333 1005.79555555c26.73777778 6.71288889 22.64177778-12.288 22.64177778-25.25866666v-88.17777778c-154.39644445 18.09066667-160.65422222-84.08177778-171.008-101.14844444C174.08 755.48444445 124.58666667 746.38222222 139.37777778 729.31555555c35.15733333-18.09066667 70.99733333 4.55111111 112.52622222 65.87733334 30.03733333 44.48711111 88.63288889 36.97777778 118.32888889 29.58222222 6.48533333-26.73777778 20.36622222-50.63111111 39.48088889-69.17688889-159.97155555-28.672-226.64533333-126.29333333-226.64533333-242.34666667 0-56.32 18.54577778-108.08888889 54.95466666-149.84533333-23.21066667-68.83555555 2.16177778-127.77244445 5.57511111-136.53333333 66.10488889-5.91644445 134.82666667 47.33155555 140.17422223 51.54133333 37.54666667-10.12622222 80.44088889-15.47377778 128.4551111-15.47377777 48.24177778 0 91.24977778 5.57511111 129.13777778 15.8151111 12.85688889-9.78488889 76.57244445-55.52355555 138.01244445-49.94844444 3.29955555 8.76088889 28.10311111 66.33244445 6.25777777 134.25777778 36.864 41.87022222 55.63733333 94.09422222 55.63733334 150.528 0 116.28088889-67.12888889 214.016-227.55555556 242.23288889 26.73777778 26.39644445 43.34933333 63.03288889 43.34933334 103.53777777v128c0.91022222 10.24 0 20.36622222 17.06666666 20.36622223 201.50044445-67.92533333 346.56711111-258.27555555 346.56711112-482.53155556 0-281.25866667-228.01066667-508.928-509.15555556-508.928z" p-id="1282"></path></svg>